 http://img806.imageshack.us/img806/4935/rahulcase.png

::General::
Complete name                    : Chris Brown featuring Tyga & Kevin McCall - Deuces HD 720p(RaHuL {tHe HuNk})[Silver RG]Chris Brown featuring Tyga & Kevin McCall - Deuces HD 720p(RaHuL {tHe HuNk})[Silver RG].mp4
Format                           : MPEG-4
Format profile                   : Base Media
Codec ID                         : isom
File size                        : 129 MiB
Duration                         : 4mn 38s
Overall bit rate                 : 3 889 Kbps
Writing application              : Lavf52.71.0


::Video::
ID                               : 1
Format                           : MPEG-4 Visual
Format profile                   : Simple@L1
Format settings, BVOP            : No
Format settings, QPel            : No
Format settings, GMC             : No warppoints
Format settings, Matrix          : Default (H.263)
Codec ID                         : 20
Duration                         : 4mn 38s
Bit rate mode                    : Variable
Bit rate                         : 3 732 Kbps
Width                            : 1 280 pixels
Height                           : 720 pixels
Display aspect ratio             : 16:9
Frame rate mode                  : Variable
Frame rate                       : 23.830 fps
Minimum frame rate               : 11.985 fps
Maximum frame rate               : 23.970 fps
Color space                      : YUV
Chroma subsampling               : 4:2:0
Bit depth                        : 8 bits
Scan type                        : Progressive
Compression mode                 : Lossy
Bits/(Pixel*Frame)               : 0.170
Stream size                      : 124 MiB (96%)
Writing library                  : Lavc52.78.0


::Audio::
ID                               : 2
Format                           : AAC
Format/Info                      : Advanced Audio Codec
Format profile                   : LC
Codec ID                         : 40
Duration                         : 4mn 38s
Bit rate mode                    : Constant
Bit rate                         : 160 Kbps
Channel(s)                       : 2 channels
Channel positions                : Front: L R
Sampling rate                    : 48.0 KHz
Compression mode                 : Lossy
Stream size                      : 5.28 MiB (4%)

:: Trackers :: 
http://exodus.1337x.org/announce 
http://tracker.publicbt.com/announce 
http://genesis.1337x.org:1337/announce 
http://exodus.1337x.org:1337/announce 
http://pow7.com/announce 
http://tracker.publicbt.com:80/announce 
http://tracker.publicbt.com/announce 
http://nemesis.1337x.org/announce

::Screen:: 
http://img864.imageshack.us/img864/7788/chrisbrownfeaturingtyga.jpg

::Note::
Make sure its real Silver RG Release From Silvertorrents.me